ModelForces
version=1
nRows=42
nColumns=15
inDegrees=no

This file contains the forces exerted on a model during a simulation.

A force is a generalized force, meaning that it can be either a force (N) or a torque (Nm).

Units are S.I. units (second, meters, Newtons, ...)
Angles are in degrees.

endheader
time	Liu	Thelen	contactForce.block.force.X	contactForce.block.force.Y	contactForce.block.force.Z	contactForce.block.torque.X	contactForce.block.torque.Y	contactForce.block.torque.Z	contactForce.ground.force.X	contactForce.ground.force.Y	contactForce.ground.force.Z	contactForce.ground.torque.X	contactForce.ground.torque.Y	contactForce.ground.torque.Z
      1.24944490	    294.57061605	    278.38427772	      0.02680053	    379.55586089	     10.75621515	     -0.53372831	     -0.00000000	      0.00132985	     -0.02680053	   -379.55586089	    -10.75621515	      0.83423992	     -0.00005287	     -0.00021293
      1.24987020	    295.57043295	    278.49032219	      0.03031908	    380.15722633	     11.69699635	     -0.58040310	     -0.00000000	      0.00150443	     -0.03031908	   -380.15722633	    -11.69699635	      0.83697237	     -0.00006008	     -0.00021685
      1.25029549	    296.55927588	    278.60442993	      0.03397095	    379.08905604	     12.56381644	     -0.62342781	     -0.00000000	      0.00168567	     -0.03397095	   -379.08905604	    -12.56381644	      0.83600888	     -0.00006763	     -0.00021992
      1.25059449	    297.24784529	    278.68941924	      0.03662546	    377.34339896	     13.12753177	     -0.65142265	     -0.00000000	      0.00181745	     -0.03662546	   -377.34339896	    -13.12753177	      0.83311966	     -0.00007316	     -0.00022154
      1.25089349	    297.93085715	    278.77775424	      0.03935761	    374.78509176	     13.65263263	     -0.67751432	     -0.00000000	      0.00195313	     -0.03935761	   -374.78509176	    -13.65263263	      0.82841616	     -0.00007888	     -0.00022272
      1.25132027	    298.89591855	    278.90975391	      0.04340217	    369.74921566	     14.33384473	     -0.71139159	     -0.00000000	      0.00215406	     -0.04340217	   -369.74921566	    -14.33384473	      0.81859975	     -0.00008742	     -0.00022361
      1.25169553	    299.73457872	    279.03116823	      0.04710944	    364.00957715	     14.86486074	     -0.73783117	     -0.00000000	      0.00233832	     -0.04710944	   -364.00957715	    -14.86486074	      0.80701521	     -0.00009531	     -0.00022362
      1.25207080	    300.56356196	    279.15777071	      0.05096745	    357.08468743	     15.33046519	     -0.76104789	     -0.00000000	      0.00253017	     -0.05096745	   -357.08468743	    -15.33046519	      0.79274921	     -0.00010358	     -0.00022289
      1.25244606	    301.38237407	    279.28914553	      0.05498353	    349.02351315	     15.72852409	     -0.78093532	     -0.00000000	      0.00272998	     -0.05498353	   -349.02351315	    -15.72852409	      0.77590004	     -0.00011225	     -0.00022143
      1.25275922	    302.05747210	    279.40293365	      0.05845976	    341.46752809	     16.00717483	     -0.79489143	     -0.00000000	      0.00290302	     -0.05845976	   -341.46752809	    -16.00717483	      0.75994586	     -0.00011981	     -0.00021964
      1.25307238	    302.72467443	    279.52020592	      0.06205079	    333.19690594	     16.23523553	     -0.80635076	     -0.00000000	      0.00308186	     -0.06205079	   -333.19690594	    -16.23523553	      0.74235129	     -0.00012766	     -0.00021736
      1.25347678	    303.57382281	    279.67740411	      0.06685612	    321.52599650	     16.45156993	     -0.81728729	     -0.00000000	      0.00332130	     -0.06685612	   -321.52599650	    -16.45156993	      0.71734431	     -0.00013823	     -0.00021367
      1.25388117	    304.40792429	    279.84115455	      0.07184270	    308.82710314	     16.57508397	     -0.82363370	     -0.00000000	      0.00356994	     -0.07184270	   -308.82710314	    -16.57508397	      0.68994957	     -0.00014928	     -0.00020916
      1.25419286	    305.03974583	    279.97246184	      0.07579900	    298.40300903	     16.60333236	     -0.82521044	     -0.00000000	      0.00376732	     -0.07579900	   -298.40300903	    -16.60333236	      0.66734593	     -0.00015810	     -0.00020515
      1.25450455	    305.66120760	    280.10814770	      0.07983953	    287.48051876	     16.57010194	     -0.82373981	     -0.00000000	      0.00396902	     -0.07983953	   -287.48051876	    -16.57010194	      0.64356686	     -0.00016717	     -0.00020068
      1.25491863	    306.46954356	    280.29605906	      0.08530566	    272.29044525	     16.42551430	     -0.81680153	     -0.00000000	      0.00424205	     -0.08530566	   -272.29044525	    -16.42551430	      0.61035843	     -0.00017951	     -0.00019406
      1.25533272	    307.25640389	    280.49311469	      0.09082761	    256.44497138	     16.15928064	     -0.80381845	     -0.00000000	      0.00451808	     -0.09082761	   -256.44497138	    -16.15928064	      0.57556861	     -0.00019209	     -0.00018670
      1.25563262	    307.81168484	    280.64238029	      0.09481522	    244.63636450	     15.88612035	     -0.79041815	     -0.00000000	      0.00471756	     -0.09481522	   -244.63636450	    -15.88612035	      0.54955505	     -0.00020124	     -0.00018094
      1.25593253	    308.35369618	    280.79721175	      0.09874724	    232.60825745	     15.54226947	     -0.77349675	     -0.00000000	      0.00491438	     -0.09874724	   -232.60825745	    -15.54226947	      0.52298887	     -0.00021034	     -0.00017484
      1.25636405	    309.10834794	    281.03095820	      0.10420352	    215.02521563	     14.91839592	     -0.74271065	     -0.00000000	      0.00518776	     -0.10420352	   -215.02521563	    -14.91839592	      0.48403895	     -0.00022309	     -0.00016551
      1.25673503	    309.73118582	    281.24293928	      0.10857451	    199.76005660	     14.25624550	     -0.70996327	     -0.00000000	      0.00540703	     -0.10857451	   -199.76005660	    -14.25624550	      0.45012216	     -0.00023345	     -0.00015701
      1.25710601	    310.32775935	    281.46631935	      0.11249360	    184.46784793	     13.47566452	     -0.67129638	     -0.00000000	      0.00560392	     -0.11249360	   -184.46784793	    -13.47566452	      0.41605807	     -0.00024290	     -0.00014813
      1.25747699	    310.89572581	    281.70165264	      0.11578255	    169.25378958	     12.57734893	     -0.62673781	     -0.00000000	      0.00576952	     -0.11578255	   -169.25378958	    -12.57734893	      0.38208715	     -0.00025105	     -0.00013893
      1.25780489	    311.37191162	    281.92081024	      0.11800055	    155.95554096	     11.68874306	     -0.58261349	     -0.00000000	      0.00588162	     -0.11800055	   -155.95554096	    -11.68874306	      0.35233167	     -0.00025680	     -0.00013056
      1.25813278	    311.82197036	    282.15077305	      0.11940765	    142.87160211	     10.71766499	     -0.53435139	     -0.00000000	      0.00595332	     -0.11940765	   -142.87160211	    -10.71766499	      0.32300187	     -0.00026080	     -0.00012204
      1.25846068	    312.24400250	    282.39254599	      0.11983691	    130.07230221	      9.67394205	     -0.48243831	     -0.00000000	      0.00597625	     -0.11983691	   -130.07230221	     -9.67394205	      0.29426080	     -0.00026267	     -0.00011340
      1.25889927	    312.76129329	    282.73533060	      0.11859330	    113.51632066	      8.18959686	     -0.40854985	     -0.00000000	      0.00591620	     -0.11859330	   -113.51632066	     -8.18959686	      0.25701513	     -0.00026117	     -0.00010176
      1.25923457	    313.11762704	    283.01350029	      0.11603799	    101.38508278	      7.01350529	     -0.34996395	     -0.00000000	      0.00579013	     -0.11603799	   -101.38508278	     -7.01350529	      0.22967672	     -0.00025645	     -0.00009286
      1.25956987	    313.43773851	    283.30606168	      0.11196289	     89.78470363	      5.83126415	     -0.29103947	     -0.00000000	      0.00558809	     -0.11196289	    -89.78470363	     -5.83126415	      0.20349924	     -0.00024831	     -0.00008405
      1.25990517	    313.71960101	    283.61383180	      0.10632204	     78.78041894	      4.67470002	     -0.23336661	     -0.00000000	      0.00530772	     -0.10632204	    -78.78041894	     -4.67470002	      0.17863641	     -0.00023661	     -0.00007539
      1.26033653	    314.02292864	    284.03249666	      0.09685293	     65.59928239	      3.28027645	     -0.16379858	     -0.00000000	      0.00483629	     -0.09685293	    -65.59928239	     -3.28027645	      0.14881829	     -0.00021649	     -0.00006459
      1.26066532	    314.20729007	    284.36929032	      0.08818340	     56.36008881	      2.32931857	     -0.11633461	     -0.00000000	      0.00440420	     -0.08818340	    -56.36008881	     -2.32931857	      0.12789504	     -0.00019777	     -0.00005671
      1.26099411	    314.34968391	    284.72107989	      0.07858385	     47.87489759	      1.50551725	     -0.07520377	     -0.00000000	      0.00392543	     -0.07858385	    -47.87489759	     -1.50551725	      0.10866413	     -0.00017682	     -0.00004923
      1.26139300	    314.46467644	    285.16800190	      0.06627774	     38.65852212	      0.70285686	     -0.03511567	     -0.00000000	      0.00331132	     -0.06627774	    -38.65852212	     -0.70285686	      0.08776096	     -0.00014972	     -0.00004081
      1.26175195	    314.51314169	    285.58805703	      0.05524668	     31.43205999	      0.17287631	     -0.00863838	     -0.00000000	      0.00276060	     -0.05524668	    -31.43205999	     -0.17287631	      0.07136114	     -0.00012524	     -0.00003397
      1.26211090	    314.50913468	    286.02440906	      0.04491382	     25.26513823	     -0.18624700	      0.00930764	      0.00000000	      0.00224456	     -0.04491382	    -25.26513823	      0.18624700	      0.05735985	     -0.00010217	     -0.00002795
      1.26246986	    314.45278318	    286.47540282	      0.03584171	     20.19760903	     -0.40249432	      0.02011659	      0.00000000	      0.00179136	     -0.03584171	    -20.19760903	      0.40249432	      0.04585096	     -0.00008182	     -0.00002286
      1.26282881	    314.34462124	    286.94004895	      0.02845532	     16.26224804	     -0.51570121	      0.02577667	      0.00000000	      0.00142230	     -0.02845532	    -16.26224804	      0.51570121	      0.03691103	     -0.00006518	     -0.00001883
      1.26318777	    314.18551308	    287.41628542	      0.02300635	     13.48454004	     -0.57117135	      0.02855087	      0.00000000	      0.00115001	     -0.02300635	    -13.48454004	      0.57117135	      0.03059880	     -0.00005288	     -0.00001596
      1.26354672	    313.97656598	    287.90300832	      0.01957054	     11.88251123	     -0.61327262	      0.03065634	      0.00000000	      0.00097829	     -0.01957054	    -11.88251123	      0.61327262	      0.02695476	     -0.00004514	     -0.00001438
      1.26390568	    313.71904323	    288.39804078	      0.01807084	     11.46660948	     -0.68029028	      0.03400671	      0.00000000	      0.00090333	     -0.01807084	    -11.46660948	      0.68029028	      0.02600089	     -0.00004182	     -0.00001418
      1.26426463	    313.41428814	    288.90045537	      0.01831397	     12.23963311	     -0.80114305	      0.04004735	      0.00000000	      0.00091547	     -0.01831397	    -12.23963311	      0.80114305	      0.02774058	     -0.00004252	     -0.00001546
